<?xml version="1.0" standalone="no"?>
<!DOCTYPE svg PUBLIC "-//W3C//DTD SVG 20010904//EN"
 "http://www.w3.org/TR/2001/REC-SVG-20010904/DTD/svg10.dtd">
<svg version="1.0" xmlns="http://www.w3.org/2000/svg"
 width="500.000000pt" height="500.000000pt" viewBox="0 0 500.000000 500.000000"
 preserveAspectRatio="xMidYMid meet">
<metadata>
Created by potrace 1.14, written by Peter Selinger 2001-2017
</metadata>
<g transform="translate(0.000000,500.000000) scale(0.100000,-0.100000)"
fill="#000000" stroke="none">
<path d="M2255 4764 c-309 -44 -519 -106 -760 -224 -596 -293 -1038 -838
-1200 -1479 -54 -216 -60 -268 -60 -561 0 -293 6 -345 60 -561 163 -645 623
-1207 1220 -1490 318 -150 626 -219 985 -219 213 0 375 19 556 65 398 102 730
287 1022 569 377 365 607 820 677 1340 22 162 17 530 -10 671 -89 480 -285
868 -609 1203 -345 357 -753 573 -1261 668 -65 12 -158 17 -340 19 -137 2
-263 1 -280 -1z m450 -1267 c1 -129 4 -165 24 -236 30 -104 103 -249 202 -402
154 -234 203 -335 235 -475 21 -95 15 -223 -16 -337 -45 -170 -185 -434 -249
-471 -33 -19 -36 -19 -121 -3 -67 13 -95 15 -117 6 l-28 -10 52 -18 c53 -18
123 -64 123 -82 0 -12 -44 -29 -74 -29 -13 0 -31 -9 -41 -20 -11 -12 -31 -20
-50 -20 -20 0 -39 -8 -54 -24 -21 -23 -24 -23 -53 -9 -23 12 -35 13 -54 4 -20
-9 -30 -8 -49 5 -16 11 -34 14 -51 10 -20 -5 -30 -2 -40 13 -11 15 -28 21 -72
23 l-57 3 38 42 c38 42 125 93 159 93 10 0 18 5 18 10 0 15 -97 12 -160 -5
-73 -19 -116 -18 -165 4 -75 34 -146 134 -223 315 -116 271 -139 561 -67 840
105 403 419 753 805 897 41 15 77 28 80 28 3 1 5 -68 5 -152z m1008 -117 c42
-60 77 -113 77 -119 0 -15 -41 -35 -50 -24 -22 23 -160 214 -160 222 0 7 36
29 50 30 3 0 40 -49 83 -109z m-2183 -156 c151 -102 280 -191 287 -197 9 -9 5
-27 -14 -77 -15 -36 -27 -67 -29 -68 -1 -2 -137 87 -302 197 -316 212 -325
221 -300 276 11 25 50 54 73 55 6 0 134 -84 285 -186z m2104 92 c49 -63 53
-71 38 -82 -82 -56 -314 -195 -322 -192 -5 2 -29 32 -54 68 l-45 64 36 26 c20
14 91 64 157 112 67 47 124 83 128 80 3 -4 31 -38 62 -76z m-364 -241 c79
-110 80 -110 59 -127 -12 -10 -24 -18 -28 -18 -6 0 -163 212 -169 228 -3 9 37
32 50 29 4 -1 44 -51 88 -112z m-82 -53 l61 -79 -95 -56 c-52 -32 -98 -57
-102 -57 -4 0 -27 35 -52 78 l-46 77 86 57 c47 31 86 57 86 58 1 0 29 -35 62
-78z m-1466 -850 c15 -42 29 -84 33 -93 4 -12 -10 -26 -56 -53 -34 -20 -63
-35 -64 -34 -1 2 -22 40 -46 86 -36 70 -41 85 -29 92 8 5 40 25 70 44 30 19
57 35 60 35 3 1 17 -34 32 -77z m1636 33 c39 -27 78 -45 95 -45 29 0 87 -36
87 -55 0 -6 -12 -26 -27 -44 l-28 -32 -35 23 c-19 13 -37 34 -40 48 -4 16 -31
42 -77 75 -69 48 -90 75 -58 75 9 0 46 -20 83 -45z m-2198 5 c0 -6 -8 -14 -17
-17 -10 -4 -30 -20 -45 -36 -19 -19 -33 -27 -46 -23 -11 4 -24 0 -32 -9 -16
-19 -30 -19 -30 0 0 8 7 15 15 15 8 0 25 11 37 25 12 14 29 25 38 25 9 0 25 7
36 15 22 17 44 19 44 5z m400 -147 c36 -64 66 -120 68 -123 1 -4 -8 -15 -22
-23 l-25 -17 -71 121 c-69 116 -71 121 -54 140 9 10 22 19 28 19 6 0 40 -53
76 -117z m-290 84 c0 -7 -47 -45 -105 -85 -84 -58 -107 -69 -111 -57 -8 20
-15 14 102 90 106 68 114 72 114 52z m2211 -157 c19 0 34 11 55 41 32 47 60
69 87 69 20 0 136 -79 137 -93 0 -4 -18 -27 -40 -51 -35 -38 -40 -49 -40 -92
0 -40 -7 -60 -39 -107 l-38 -58 -5 46 c-3 25 -13 54 -23 65 -20 22 -88 46
-155 56 -31 4 -73 25 -136 66 l-92 59 13 47 c7 26 16 59 19 75 l6 27 113 -75
c68 -46 122 -75 138 -75z m-2346 131 c7 -12 -12 -24 -25 -16 -11 7 -4 25 10
25 5 0 11 -4 15 -9z m89 -79 c-16 -8 -41 -26 -56 -39 -15 -14 -32 -22 -38 -18
-7 5 10 22 46 46 32 21 62 35 67 32 6 -3 -3 -13 -19 -21z m250 -47 l37 -56
-32 -27 c-18 -14 -42 -49 -54 -77 -32 -72 -45 -80 -131 -81 -84 0 -108 -14
-102 -56 4 -23 -3 -32 -40 -59 l-45 -32 -24 29 c-51 64 -42 129 28 209 27 31
49 63 49 71 0 29 31 74 61 89 23 12 47 15 97 10 58 -5 70 -3 92 14 14 11 25
21 26 21 1 0 18 -25 38 -55z m2341 -35 c4 -6 -10 -33 -29 -60 -20 -28 -36 -62
-36 -77 0 -32 -106 -193 -127 -193 -20 0 -17 6 42 88 49 68 55 82 55 125 0 40
6 57 31 88 30 39 52 48 64 29z m115 -89 c0 -3 -11 -23 -23 -43 l-23 -37 -42
25 c-23 14 -42 27 -42 30 0 3 12 20 27 39 l27 34 38 -21 c21 -12 38 -24 38
-27z m80 -74 c0 -21 -16 -51 -51 -98 -48 -63 -58 -70 -140 -104 -48 -21 -92
-36 -98 -34 -5 2 21 46 60 97 52 68 77 94 98 98 20 4 36 20 56 54 27 47 29 48
52 33 16 -10 23 -25 23 -46z m-2732 -154 l20 -27 -66 -49 c-63 -49 -66 -49
-91 -34 -14 9 -26 21 -26 27 0 11 123 109 137 110 3 0 15 -12 26 -27z"/>
<path d="M2202 3136 c-100 -108 -153 -222 -154 -339 -2 -71 5 -87 32 -87 28 0
32 12 33 123 2 95 5 107 38 177 20 41 51 95 70 120 71 92 64 94 -19 6z"/>
<path d="M2955 2228 c-28 -64 -99 -172 -147 -224 -48 -52 -142 -127 -182 -145
-35 -16 -36 -66 -3 -97 21 -20 34 -22 129 -22 l106 0 37 42 c83 97 125 248
106 380 -15 109 -23 120 -46 66z"/>
<path d="M2007 2209 c-12 -44 -7 -184 8 -244 18 -67 53 -136 98 -190 l31 -38
123 5 c100 4 127 8 143 23 30 27 24 49 -17 69 -112 53 -259 192 -323 305 -55
98 -56 98 -63 70z"/>
<path d="M1227 3343 c-27 -26 23 -95 80 -109 37 -10 60 17 45 51 -20 43 -102
81 -125 58z"/>
</g>
</svg>
