<svg id="All_glyphs" data-name="All glyphs" xmlns="http://www.w3.org/2000/svg" xmlns:xlink="http://www.w3.org/1999/xlink" viewBox="0 0 45.56 36.64"><defs><style>.cls-1{fill:url(#Dégradé_sans_nom_4);}</style><linearGradient id="Dégradé_sans_nom_4" x1="20.8" y1="29.68" x2="33.33" y2="22.93" gradientUnits="userSpaceOnUse"><stop offset="0" stop-color="#393e46"/><stop offset="1" stop-color="#464c56"/></linearGradient></defs><path class="cls-1" d="M45.52,5.76,1.81,21.17c-.7.25-.86.85,0,1.19l9.4,3.76h0l5.57,2.23L44,8.38c.37-.27.79.24.53.53L25,30h0l-1.13,1.24,1.49.8h0l12.33,6.64a1.26,1.26,0,0,0,1.86-.83c.25-1.06,7.05-30.36,7.2-31C46.94,6,46.38,5.46,45.52,5.76Zm-28.81,36c0,.61.34.78.82.35l7-6.34-7.87-4.07Z" transform="translate(-1.22 -5.68)"/></svg>