<svg id="All_glyphs" data-name="All glyphs" xmlns="http://www.w3.org/2000/svg" viewBox="0 0 177.31 36.64"><defs><style>.cls-1{fill:#fff;}</style></defs><path class="cls-1" d="M45.54,1.05,1.83,16.45c-.7.25-.86.86,0,1.19l9.39,3.77h0l5.58,2.23L44,3.67c.37-.27.79.23.52.52L25,25.27h0l-1.12,1.25,1.49.8h0L37.7,34a1.26,1.26,0,0,0,1.86-.82c.25-1.06,7-30.36,7.2-31C47,1.27,46.39.75,45.54,1.05ZM16.72,37c0,.61.35.78.82.35C18.16,36.8,24.6,31,24.6,31L16.72,27Z" transform="translate(-1.24 -0.96)"/><path class="cls-1" d="M68.93,11.25c0,.57.11,1.45-.26,1.92l-7.48,11h7.56v2.26H57.67c0-.52-.11-1.45.25-1.88L65.43,13.5H58.15V11.25Z" transform="translate(-1.24 -0.96)"/><path class="cls-1" d="M78.42,26.44c-.61-.07-1.8.27-2-.56l-.22-.77C74.69,26.84,71.1,27.44,70,25c-1.27-3.53,3-4.8,6-4.67A3.45,3.45,0,0,0,75.55,18c-.66-.83-2.21-.56-3-.05-1.31.93-1.68.42-2.28-.83,2.08-2.16,6.81-2.61,7.88.79C78.65,19,78.34,25.18,78.42,26.44Zm-4.84-1.62A3.1,3.1,0,0,0,76,23.67v-1.8c-1.38.05-2.78.05-3.62,1A1.25,1.25,0,0,0,73.58,24.82Z" transform="translate(-1.24 -0.96)"/><path class="cls-1" d="M83.68,29.4a.76.76,0,0,1-.83.55H81l1.93-4.31-4.18-10h2.17a.72.72,0,0,1,.71.49c.3.86,2.46,5.94,2.54,6.74.18-.75,2.17-5.9,2.46-6.74a.77.77,0,0,1,.69-.49h2Z" transform="translate(-1.24 -0.96)"/><path class="cls-1" d="M90.26,26.44V15.66h1.52a.62.62,0,0,1,.64.48l.17.85c1.72-2.17,5.73-2,6.46.94.43,1.06.15,7.28.23,8.51H96.79V19.58c.1-2.61-2.71-2.52-4-.93v7.79Z" transform="translate(-1.24 -0.96)"/><path class="cls-1" d="M104.17,21.09v5.35h-2.71V11.25c1.68.09,5.78-.24,7.28.36,3.45.91,4.11,5.8,1.71,8.09C108.91,21.23,106.28,21.13,104.17,21.09Zm0-2.2c2.28,0,5,.28,5-2.8s-2.81-2.68-5-2.65Z" transform="translate(-1.24 -0.96)"/><path class="cls-1" d="M116,10.83V26.44h-2.49V10.83Z" transform="translate(-1.24 -0.96)"/><path class="cls-1" d="M122.7,15.49c6.81-.26,6.8,11.36,0,11.1C115.87,26.85,115.86,15.24,122.7,15.49Zm0,9.11c2,0,2.5-1.58,2.53-3.55s-.5-3.53-2.53-3.57-2.53,1.6-2.56,3.57S120.66,24.57,122.7,24.6Z" transform="translate(-1.24 -0.96)"/><path class="cls-1" d="M129.25,26.44V15.66h1.52a.61.61,0,0,1,.63.48l.17.79c1.42-1.94,4.61-2,5.33.58,1.16-2.79,5.89-2.7,6.64.34.45,1.1.16,7.31.24,8.59h-2.49V19.58c0-1.23-.47-2.06-1.71-2.07a1.86,1.86,0,0,0-1.81,2.07v6.86h-2.5V19.58c.17-2.41-2.32-2.65-3.53-1v7.89Z" transform="translate(-1.24 -0.96)"/><path class="cls-1" d="M145.75,26.44V10.83h2.5V17c1.44-1.8,4.56-2.13,6-.08A8,8,0,0,1,155,23.2c-.63,3.05-4.85,4.77-6.85,2l-.11.72a.55.55,0,0,1-.6.51Zm4.84-8.93a2.78,2.78,0,0,0-2.34,1.3v4.83a2.38,2.38,0,0,0,4.28-1.05C152.86,20.89,153,17.53,150.59,17.51Z" transform="translate(-1.24 -0.96)"/><path class="cls-1" d="M159.74,12.52a1.6,1.6,0,1,1-3.19,0A1.6,1.6,0,1,1,159.74,12.52Zm-.37,3.14V26.44h-2.49V15.66Z" transform="translate(-1.24 -0.96)"/><path class="cls-1" d="M166,15.49a4.45,4.45,0,0,1,4.48,4.89c0,.37,0,.77-.29.95a.79.79,0,0,1-.29.05h-6.39a3,3,0,0,0,4.64,2.74c.49-.25,1.09-.8,1.51-.23l.73.94a5.58,5.58,0,0,1-7.89.29C159.54,22,161,15.29,166,15.49Zm.05,1.86c-1.53,0-2.27,1-2.49,2.46h4.68A2.2,2.2,0,0,0,166,17.35Z" transform="translate(-1.24 -0.96)"/><path class="cls-1" d="M172,26.44V15.66h1.46c.52,0,.66.17.74.66l.15,1.3c.78-1.58,2.66-2.83,4.25-1.79a11.37,11.37,0,0,1-.46,2.21c-.2.14-.4.08-.68,0a2.47,2.47,0,0,0-3,1.68v6.71Z" transform="translate(-1.24 -0.96)"/></svg>