<svg id="Icone" xmlns="http://www.w3.org/2000/svg" viewBox="0 0 287.12 293.61" fill="#393e46"><defs><style>.cls-1{fill:#393e46;}</style></defs><path class="cls-1" d="M290.3,290.28h-50V275.76c17.48-2.56,23.75-17.52,27.23-30.71,2.84-10.75,5.7-20.59,8.74-30.08.76-2.37,1.43-4.79,2.08-7.13,2.27-8.16,4.42-15.87,9.91-21.82,4.73-5.1,6.32-9.68,4.73-13.61-2.06-5.11-9-7.92-21.35-8.62l-2-.09V13h0a3.12,3.12,0,0,0-.09-.8c-1.24-5-3.49-7.92-6.69-8.74-5.86-1.51-11.79,4.88-17,10.51-1.44,1.56-3,3.27-4.17,4.26-9-5.71-25.07-10.52-36.53,3.58l-1.86,2.29L241,61.81l2.25-1.61c15.05-10.75,6.13-31.21,3-37.35,1.34-1.2,2.79-2.76,4.38-4.48,2.55-2.74,8.53-9.16,10.63-8.63.28.07,1.14.89,1.89,3.66V163.46c-10.79-.28-21.67-.05-32.26.19-6.26.14-12.74.28-19.06.31-19.35.08-39.09.13-60.36.14H150q-16,0-32.08,0V150.53H57v12.88c-9.21-.15-18.93-.16-28.64.38-12.3.69-19.28,3.51-21.34,8.62-1.59,3.93,0,8.51,4.72,13.62,5.51,5.94,7.65,13.65,9.92,21.81.65,2.35,1.33,4.77,2.08,7.13,3,9.49,5.91,19.33,8.74,30.09,3.34,12.62,9.22,26.87,25.06,30.3v14.92H9.71a3.26,3.26,0,1,0,0,6.52H290.3a3.26,3.26,0,0,0,0-6.52ZM241.52,53.09,212.16,23.74c10.8-10.15,24.92-.87,27.77,1.2C241.63,28.09,249.72,44.27,241.52,53.09ZM63.54,223h47.85v11.28H63.54Zm47.85-65.93v59.41H63.54V157.06ZM38.81,243.39C36,232.52,33.06,222.58,30,213c-.72-2.24-1.38-4.6-2-6.88-2.38-8.56-4.84-17.4-11.42-24.51-2.69-2.91-4-5.43-3.46-6.74.7-1.73,5.22-3.95,15.66-4.54,9.54-.54,19.16-.52,28.27-.38V240.8h60.9V170.65q16,0,32.08,0,19.68,0,39.35,0h25.81a3.29,3.29,0,0,0,1.09-.2c4.94-.06,9.91-.17,14.74-.28,13.26-.3,27-.6,40.25.14,10.45.59,15,2.81,15.67,4.54.53,1.31-.77,3.83-3.47,6.74-6.57,7.11-9,15.95-11.4,24.5-.64,2.28-1.3,4.65-2,6.89-3.08,9.59-6,19.54-8.84,30.41-4.92,18.63-12.56,26.23-26.36,26.23H65.17C51.37,269.62,43.73,262,38.81,243.39Zm25.28,46.89V276.14H80l-5.65,14.14Zm17.32,0,5.65-14.14H210.77l5.65,14.14Zm142,0-5.65-14.14h15.94v14.14Z" transform="translate(-6.44 -3.2)"/><path class="cls-1" d="M220.69,73.86A3.26,3.26,0,0,0,224,70.6V65.16a3.26,3.26,0,1,0-6.52,0V70.6A3.26,3.26,0,0,0,220.69,73.86Z" transform="translate(-6.44 -3.2)"/><path class="cls-1" d="M217.43,90.17a3.26,3.26,0,1,0,6.52,0V84.73a3.26,3.26,0,1,0-6.52,0Z" transform="translate(-6.44 -3.2)"/><path class="cls-1" d="M217.43,108.66a3.26,3.26,0,1,0,6.52,0v-5.44a3.26,3.26,0,0,0-6.52,0Z" transform="translate(-6.44 -3.2)"/><path class="cls-1" d="M217.43,128.24a3.26,3.26,0,0,0,6.52,0V122.8a3.26,3.26,0,1,0-6.52,0Z" transform="translate(-6.44 -3.2)"/><path class="cls-1" d="M177.73,106.69a3.25,3.25,0,0,0-4.45,1.19l-2.72,4.71a3.27,3.27,0,0,0,1.19,4.46,3.35,3.35,0,0,0,1.63.44,3.26,3.26,0,0,0,2.83-1.64l2.72-4.71A3.26,3.26,0,0,0,177.73,106.69Z" transform="translate(-6.44 -3.2)"/><path class="cls-1" d="M162.4,124.19l-2.72,4.71a3.27,3.27,0,0,0,1.2,4.46,3.2,3.2,0,0,0,1.63.44,3.26,3.26,0,0,0,2.82-1.63l2.72-4.71a3.26,3.26,0,0,0-5.65-3.27Z" transform="translate(-6.44 -3.2)"/><path class="cls-1" d="M181.54,100.09a3.22,3.22,0,0,0,1.63.44A3.26,3.26,0,0,0,186,98.9l2.72-4.71a3.26,3.26,0,1,0-5.65-3.26l-2.72,4.71A3.25,3.25,0,0,0,181.54,100.09Z" transform="translate(-6.44 -3.2)"/><path class="cls-1" d="M192.31,74.92l-2.72,4.71a3.26,3.26,0,0,0,5.65,3.26L198,78.18a3.26,3.26,0,1,0-5.65-3.26Z" transform="translate(-6.44 -3.2)"/><path class="cls-1" d="M200.57,67.13A3.26,3.26,0,0,0,205,65.94l2.72-4.71A3.26,3.26,0,0,0,202.1,58l-2.72,4.71A3.27,3.27,0,0,0,200.57,67.13Z" transform="translate(-6.44 -3.2)"/><path class="cls-1" d="M173.06,64.59a3.26,3.26,0,0,0,2.3-1l3.85-3.85a3.26,3.26,0,1,0-4.61-4.61L170.75,59a3.26,3.26,0,0,0,2.31,5.57Z" transform="translate(-6.44 -3.2)"/><path class="cls-1" d="M187.78,51.65a3.25,3.25,0,0,0,2.31-1l3.85-3.84a3.27,3.27,0,0,0-4.62-4.62l-3.84,3.85a3.27,3.27,0,0,0,2.3,5.57Z" transform="translate(-6.44 -3.2)"/><path class="cls-1" d="M159.22,78.43a3.21,3.21,0,0,0,2.3-1l3.85-3.85A3.26,3.26,0,1,0,160.75,69l-3.84,3.84a3.26,3.26,0,0,0,2.31,5.57Z" transform="translate(-6.44 -3.2)"/><path class="cls-1" d="M146.14,91.51a3.25,3.25,0,0,0,2.31-1l3.84-3.84a3.26,3.26,0,1,0-4.61-4.62l-3.84,3.85a3.27,3.27,0,0,0,2.3,5.57Z" transform="translate(-6.44 -3.2)"/><path class="cls-1" d="M132.3,105.35a3.27,3.27,0,0,0,2.31-1l3.84-3.84a3.26,3.26,0,0,0-4.61-4.62L130,99.78a3.27,3.27,0,0,0,2.31,5.57Z" transform="translate(-6.44 -3.2)"/></svg>