<svg fill="#393e46" id="Capa_1" enable-background="new 0 0 511.556 511.556" height="512" viewBox="0 0 511.556 511.556" width="512" xmlns="http://www.w3.org/2000/svg"><g><g><path d="m502.881 119.289c7.868-7.67 10.646-18.927 7.251-29.377s-12.26-17.923-23.134-19.503l-43.856-6.373c-4.449-.647-8.293-3.44-10.283-7.471l-19.613-39.741c-4.863-9.854-14.71-15.975-25.697-15.975-10.988 0-20.835 6.121-25.698 15.975l-19.613 39.741c-1.99 4.031-5.834 6.824-10.283 7.471l-43.856 6.373c-10.874 1.58-19.739 9.053-23.135 19.504-3.396 10.45-.616 21.707 7.252 29.376l31.735 30.934c3.22 3.138 4.688 7.657 3.928 12.089l-7.491 43.679c-1.858 10.83 2.51 21.57 11.399 28.029 5.024 3.65 10.9 5.504 16.818 5.504 4.554 0 9.133-1.099 13.362-3.322l39.227-20.623c3.98-2.092 8.731-2.092 12.71 0l39.227 20.623c9.726 5.113 21.288 4.277 30.18-2.181 8.89-6.458 13.258-17.199 11.401-28.028l-1.433-8.36c-.701-4.083-4.581-6.829-8.659-6.125-4.083.7-6.825 4.576-6.126 8.659l1.433 8.361c.899 5.24-1.132 10.233-5.434 13.358-4.3 3.125-9.678 3.514-14.382 1.039l-39.227-20.622c-8.351-4.391-18.32-4.392-26.671 0l-39.227 20.623c-4.704 2.475-10.081 2.086-14.383-1.04-4.301-3.125-6.332-8.118-5.434-13.358l7.491-43.678c1.596-9.298-1.484-18.781-8.24-25.366l-31.735-30.934c-3.807-3.71-5.099-8.944-3.456-14s5.764-8.531 11.024-9.295l43.856-6.373c9.336-1.356 17.402-7.217 21.578-15.676l19.613-39.741c2.353-4.767 6.931-7.613 12.247-7.613 5.315 0 9.894 2.846 12.246 7.613l19.613 39.741c4.176 8.459 12.242 14.32 21.578 15.676l43.856 6.373c5.26.765 9.382 4.239 11.024 9.294 1.643 5.056.351 10.29-3.456 14l-31.735 30.934c-6.756 6.585-9.836 16.068-8.241 25.365l.249 1.453c.7 4.083 4.577 6.826 8.66 6.125 4.082-.7 6.824-4.577 6.125-8.659l-.25-1.454c-.76-4.431.708-8.95 3.928-12.088z"/><path d="m412.21 324.66c5.316-6.165 8.541-14.181 8.541-22.942 0-19.402-15.784-35.186-35.187-35.186l-114.15-.138c-.016-.045-1.279-3.709-2.081-5.423-.004-.009-.009-.02-.013-.029-1.734-3.703-2.379-7.747-1.863-11.695 1.673-12.805 2.087-26.102 2.42-36.785.857-27.403-4.612-47.417-16.721-61.188-12.167-13.837-29.66-21.748-48.055-21.748-.138 0-.277 0-.416.001-10.334.067-18.742 8.617-18.742 19.06v33.313c0 21.197-3.432 50.692-19.78 70.83-17.343 21.363-32.32 21.178-57.122 20.873-.851-.01-1.71-.021-2.577-.03v-9.001c0-14.927-12.145-27.071-27.071-27.071h-52.322c-14.926-.001-27.071 12.143-27.071 27.07v75.313c0 4.142 3.357 7.5 7.5 7.5s7.5-3.358 7.5-7.5v-75.313c0-6.656 5.415-12.071 12.071-12.071h52.321c6.656 0 12.071 5.415 12.071 12.071v219.064c0 6.656-5.415 12.071-12.071 12.071h-52.321c-6.656 0-12.071-5.415-12.071-12.071v-109.532c0-4.142-3.357-7.5-7.5-7.5s-7.5 3.358-7.5 7.5v109.532c0 14.927 12.145 27.071 27.071 27.071h52.321c14.927 0 27.071-12.144 27.071-27.071v-11.327h10.14c4.905 0 9.762 1.714 13.673 4.828 1.011.804 2.188 1.81 3.553 2.975 9.379 8.007 26.835 22.912 51.823 22.912l184.1.002c19.402 0 35.187-15.784 35.187-35.186 0-8.38-2.949-16.081-7.858-22.131 13.762-4.781 23.671-17.872 23.671-33.241 0-8.759-3.225-16.775-8.54-22.94 12.646-5.339 21.543-17.866 21.543-32.432 0-14.568-8.899-27.095-21.545-32.435zm-90.66-43.127h64.015c11.131 0 20.187 9.056 20.187 20.186 0 11.131-9.056 20.187-20.187 20.187h-64.015c-11.131 0-20.187-9.056-20.187-20.187s9.056-20.186 20.187-20.186zm-44.608 206.49h-91.289c-19.456 0-33.072-11.626-42.083-19.319-1.408-1.203-2.738-2.338-3.952-3.304-6.556-5.218-14.729-8.091-23.014-8.091h-10.14v-168.736c.805.009 1.603.019 2.393.029 26.275.318 47.036.579 68.953-26.418 10.554-13 23.134-37.481 23.134-80.284v-33.312c0-2.225 1.723-4.046 3.84-4.06.101-.001.2-.001.301-.001 13.886 0 27.626 6.211 36.808 16.653 9.476 10.776 13.726 27.398 12.993 50.815-.323 10.354-.725 23.241-2.301 35.311-.887 6.787.203 13.703 3.151 19.998.015.031.033.074.049.111.025.055.047.105.078.177.005.011.01.024.016.037 2.398 5.626 4.223 11.753 4.507 17.914.354 7.677-1.191 15.405-4.614 23.015-.069.157-7.165 15.796-26.712 24.47-3.786 1.68-5.493 6.111-3.814 9.897 5.808 13.096 27.373-6.591 32.695-12.107 4.513-4.678 8.877-10.152 11.53-16.15 4.378-9.732 6.363-19.764 5.899-29.814-.051-1.117-.154-2.278-.291-3.458h17.775c-4.081 5.745-6.49 12.756-6.49 20.324 0 14.567 8.898 27.094 21.545 32.433-5.316 6.165-8.541 14.181-8.541 22.942 0 8.759 3.225 16.775 8.539 22.94-12.646 5.339-21.543 17.866-21.543 32.432 0 8.38 2.949 16.082 7.858 22.132-13.762 4.781-23.671 17.872-23.671 33.241 0 7.505 2.37 14.464 6.391 20.183zm92.81.002-64.053-.002c-11.113-.021-20.148-9.066-20.148-20.184 0-11.131 9.056-20.186 20.187-20.186h64.015c11.131 0 20.187 9.055 20.187 20.186s-9.057 20.186-20.188 20.186zm15.812-55.373h-64.014c-11.131 0-20.187-9.056-20.187-20.187 0-11.13 9.056-20.186 20.187-20.186h64.015c11.131 0 20.187 9.056 20.187 20.186-.001 11.132-9.057 20.187-20.188 20.187zm13.004-55.372h-64.015c-11.131 0-20.187-9.056-20.187-20.186 0-11.131 9.056-20.187 20.187-20.187h64.015c11.131 0 20.187 9.056 20.187 20.187 0 11.13-9.056 20.186-20.187 20.186z"/></g></g></svg>