<svg id="Icone" xmlns="http://www.w3.org/2000/svg" viewBox="0 0 295.43 255.56" fill="#393e46"><defs><style>.cls-1{fill:#393e46;}</style></defs><path class="cls-1" d="M163.36,70c-7-.6-13.24,3.1-15.11,10h-.44V221.1h.2c1.33,7.5,7.91,11.76,15.35,11.11a13.32,13.32,0,0,0,13.13-11.11h.2V80h-.44A13.44,13.44,0,0,0,163.36,70Zm0,155.52h-2.22a6.77,6.77,0,0,1-6.67-6.34V82.61a6.85,6.85,0,0,1,6.67-5.93h2.22A6.85,6.85,0,0,1,170,82.61V219.2A6.77,6.77,0,0,1,163.36,225.54Z" transform="translate(-2.28 -22.22)"/><path class="cls-1" d="M113.37,70c-7-.6-13.24,3.1-15.11,10h-.44V221.1H98c1.33,7.5,7.91,11.76,15.35,11.11A13.32,13.32,0,0,0,126.5,221.1h.2V80h-.44A13.44,13.44,0,0,0,113.37,70Zm0,155.52h-2.22a6.77,6.77,0,0,1-6.67-6.34V82.61a6.85,6.85,0,0,1,6.67-5.93h2.22A6.85,6.85,0,0,1,120,82.61V219.2A6.77,6.77,0,0,1,113.37,225.54Z" transform="translate(-2.28 -22.22)"/><path class="cls-1" d="M63.38,70c-7-.6-13.24,3.1-15.11,10h-.44V221.1H48c1.33,7.5,7.91,11.76,15.35,11.11A13.32,13.32,0,0,0,76.51,221.1h.2V80h-.44A13.44,13.44,0,0,0,63.38,70Zm0,155.52H61.16a6.77,6.77,0,0,1-6.67-6.34V82.61a6.85,6.85,0,0,1,6.67-5.93h2.22a6.85,6.85,0,0,1,6.67,5.93V219.2A6.77,6.77,0,0,1,63.38,225.54Z" transform="translate(-2.28 -22.22)"/><path class="cls-1" d="M213.35,71.13c-6.54-.54-12.48,2.62-14.77,8.88h-.78V221.1h.2c1.33,7.5,7.91,11.76,15.35,11.11a13.32,13.32,0,0,0,13.13-11.11h.2V80h-.78A13.46,13.46,0,0,0,213.35,71.13Zm0,154.41h-2.22a6.77,6.77,0,0,1-6.67-6.34V83.72a6.85,6.85,0,0,1,6.67-5.93h2.22A6.85,6.85,0,0,1,220,83.72V219.2A6.77,6.77,0,0,1,213.35,225.54Z" transform="translate(-2.28 -22.22)"/><path class="cls-1" d="M288.61,52.8c-4.71,0-8.47,5.23-9.07,12.22h-7.31V51.13H254.45V38.91a17.22,17.22,0,0,0-34.43,0V52.57a6.78,6.78,0,0,1-6.67,6.34h-2.22a6.78,6.78,0,0,1-6.67-6.34V38.91a17.22,17.22,0,0,0-34.43,0V52.57a6.78,6.78,0,0,1-6.67,6.34h-2.22a6.78,6.78,0,0,1-6.67-6.34V38.91a17.22,17.22,0,0,0-34.43,0V52.57a6.78,6.78,0,0,1-6.67,6.34h-2.22a6.78,6.78,0,0,1-6.67-6.34V38.91A16.76,16.76,0,0,0,86.71,22.25,16.67,16.67,0,0,0,70.05,38.91V52.57a6.78,6.78,0,0,1-6.67,6.34H61.16a6.78,6.78,0,0,1-6.67-6.34V38.91A16.67,16.67,0,0,0,37.83,22.25,16.76,16.76,0,0,0,20.06,38.91V51.13H3.39V83.35H20.06V217.76H2.28V250H20.06v11.11a16.76,16.76,0,0,0,17.77,16.66,16.67,16.67,0,0,0,16.66-16.66V249.25a6.86,6.86,0,0,1,6.67-5.94h2.22a6.86,6.86,0,0,1,6.67,5.94v11.84a16.76,16.76,0,0,0,17.77,16.66,16.67,16.67,0,0,0,16.66-16.66V249.25a6.86,6.86,0,0,1,6.67-5.94h2.22a6.86,6.86,0,0,1,6.67,5.94v11.84a17.22,17.22,0,0,0,34.43,0V249.25a6.86,6.86,0,0,1,6.67-5.94h2.22a6.86,6.86,0,0,1,6.67,5.94v11.84a17.22,17.22,0,0,0,34.43,0V249.25a6.86,6.86,0,0,1,6.67-5.94h2.22a6.86,6.86,0,0,1,6.67,5.94v11.84a17.22,17.22,0,0,0,34.43,0V250h16.67v-7.22h15.55V225H271.12v-7.22H254.45V83.35h17.78V69.46h7.36c.75,6.71,4.44,11.67,9,11.67C300.75,80.69,300.75,53.22,288.61,52.8ZM10.06,76.68V57.8h10V76.68ZM9,243.31V224.43H20.06v18.88Zm238.84,17.78a10.14,10.14,0,0,1-11.11,10,10,10,0,0,1-10-10V246.65h-.44c-1.87-6.9-8.16-10.59-15.11-10a13.44,13.44,0,0,0-12.89,10h-.44v14.44a10.14,10.14,0,0,1-11.11,10,10,10,0,0,1-10-10V246.65h-.44c-1.87-6.9-8.16-10.59-15.11-10a13.44,13.44,0,0,0-12.89,10h-.44v14.44a10.14,10.14,0,0,1-11.11,10,10,10,0,0,1-10-10V246.65h-.44c-1.87-6.9-8.16-10.59-15.11-10a13.44,13.44,0,0,0-12.89,10h-.44v14.44a10.14,10.14,0,0,1-11.11,10,10,10,0,0,1-10-10V246.65h-.44c-1.87-6.9-8.16-10.59-15.11-10a13.44,13.44,0,0,0-12.89,10h-.44v14.44a10.14,10.14,0,0,1-11.11,10,10,10,0,0,1-10-10V38.91a10,10,0,0,1,10-10,10.14,10.14,0,0,1,11.11,10V54.46H48c1.33,7.5,7.91,11.77,15.35,11.11A13.31,13.31,0,0,0,76.51,54.46h.2V38.91a10.14,10.14,0,0,1,11.11-10,10,10,0,0,1,10,10V54.46H98c1.33,7.5,7.91,11.77,15.35,11.11A13.31,13.31,0,0,0,126.5,54.46h.2V38.91a10.14,10.14,0,0,1,11.11-10,10,10,0,0,1,10,10V54.46h.2c1.33,7.5,7.91,11.77,15.35,11.11a13.31,13.31,0,0,0,13.13-11.11h.2V38.91a10.14,10.14,0,0,1,11.11-10,10,10,0,0,1,10,10V54.46h.2c1.33,7.5,7.91,11.77,15.35,11.11a13.31,13.31,0,0,0,13.13-11.11h.2V38.91a10,10,0,0,1,10-10,10.14,10.14,0,0,1,11.11,10Zm34.44-31.66v8.89H271.12v-8.89Zm-17.78,13.88h-10V224.43h10Zm1.11-166.63H254.45V57.8h11.11Zm23.05,0c-2.23,0-4.72-4.16-4.72-9.72s2.49-9.72,4.72-9.72,4.72,4.16,4.72,9.72S290.84,76.68,288.61,76.68Z" transform="translate(-2.28 -22.22)"/></svg>