<svg fill="#393e46" id="_x31_" height="512" viewBox="0 0 24 24" width="512" xmlns="http://www.w3.org/2000/svg"><path d="m12 24c-.118 0-.236-.042-.331-.125-.354-.312-8.669-7.731-8.669-14.875 0-4.962 4.038-9 9-9s9 4.038 9 9c0 7.144-8.315 14.563-8.669 14.875-.095.083-.213.125-.331.125zm0-23c-4.411 0-8 3.589-8 8 0 5.917 6.451 12.359 8 13.82 1.549-1.461 8-7.902 8-13.82 0-4.411-3.589-8-8-8z"/><path d="m9 8c-1.103 0-2-.897-2-2s.897-2 2-2 2 .897 2 2-.897 2-2 2zm0-3c-.551 0-1 .449-1 1s.449 1 1 1 1-.449 1-1-.449-1-1-1z"/><path d="m15 14c-1.103 0-2-.897-2-2s.897-2 2-2 2 .897 2 2-.897 2-2 2zm0-3c-.551 0-1 .449-1 1s.449 1 1 1 1-.449 1-1-.449-1-1-1z"/><path d="m8.5 14c-.107 0-.215-.034-.307-.105-.218-.169-.257-.483-.087-.702l7-9c.17-.217.484-.257.702-.087.218.169.257.483.087.702l-7 9c-.099.126-.247.192-.395.192z"/></svg>